<?xml version="1.0" encoding="utf-8"?>
<!-- Generator: Adobe Illustrator 27.3.1, SVG Export Plug-In . SVG Version: 6.00 Build 0)  -->
<svg version="1.1" xmlns="http://www.w3.org/2000/svg" xmlns:xlink="http://www.w3.org/1999/xlink" x="0px" y="0px"
	 viewBox="0 0 2000 400" style="enable-background:new 0 0 2000 400;" xml:space="preserve">
<style type="text/css">
	.st0{fill:#0083CA;}
	.st1{fill:#FDC901;}
	.st2{fill:#00A6EA;}
	.st3{fill:#FFC60B;}
	.st4{fill:#E50083;}
	.st5{fill:#7B67AA;}
	.st6{fill:#97BE01;}
	.st7{fill:#F15A22;}
	.st8{fill:#86328C;}
	.st9{fill:#E81A4B;}
</style>
<g id="BACKGROUND">
</g>
<g id="OBJECTS">
	<g>
		<g>
			<g>
				<path class="st0" d="M0.77,0h66.67"/>
				<path class="st1" d="M67.43,0"/>
			</g>
			<g>
				<path class="st2" d="M134,0h66.67"/>
				<path class="st3" d="M200.67,0h66.67"/>
			</g>
			<g>
				<path class="st1" d="M267.24,0"/>
				<path class="st4" d="M333.91,0"/>
			</g>
			<g>
				<path class="st5" d="M400.48,0h66.67"/>
				<path class="st2" d="M533.81,0"/>
			</g>
			<g>
				<path class="st2" d="M533.72,0"/>
				<path class="st2" d="M600.38,0h66.67"/>
			</g>
			<g>
				<path class="st6" d="M666.95,0"/>
				<path class="st7" d="M733.62,0h66.67"/>
			</g>
			<g>
				<path class="st4" d="M800.19,0h66.67"/>
				<path class="st2" d="M866.86,0h66.67"/>
			</g>
			<g>
				<path class="st0" d="M933.43,0h66.67"/>
				<path class="st6" d="M1066.76,0"/>
			</g>
			<g>
				<path class="st6" d="M1133.33,0"/>
				<path class="st1" d="M1133.33,0"/>
			</g>
			<g>
				<path class="st0" d="M1199.9,0"/>
				<path class="st0" d="M1266.57,0h66.67"/>
			</g>
			<g>
				<path class="st7" d="M1333.14,0h66.67"/>
				<path class="st0" d="M1399.81,0h66.67"/>
			</g>
			<g>
				<path class="st3" d="M1466.38,0h66.67"/>
				<path class="st5" d="M1599.71,0"/>
			</g>
			<g>
				<path class="st8" d="M1666.28,0"/>
				<path class="st9" d="M1666.28,0"/>
			</g>
			<g>
				<path class="st1" d="M1732.85,0h66.67"/>
				<path class="st5" d="M1799.52,0"/>
			</g>
			<g>
				<path class="st0" d="M1866.09,0"/>
				<path class="st3" d="M1999.42,0"/>
			</g>
		</g>
		<g>
			<g>
				<path class="st6" d="M0.72,66.67c0,36.82,29.85,66.67,66.67,66.67V66.67H0.72z"/>
				<path class="st2" d="M67.38,66.67C67.38,29.85,37.54,0,0.72,0v66.67H67.38z"/>
				<path class="st7" d="M134.05,133.33c0-36.82-29.85-66.67-66.67-66.67v66.67H134.05z"/>
				<path class="st2" d="M67.38,0v66.67h66.67C134.05,29.85,104.2,0,67.38,0z"/>
			</g>
			<g>
				<path class="st0" d="M200.62,66.67c-36.82,0-66.67,29.85-66.67,66.67h66.67V66.67z"/>
				<path class="st5" d="M200.62,66.67C200.62,29.85,170.77,0,133.96,0v66.67H200.62z"/>
				<path class="st3" d="M267.29,133.33c0-36.82-29.85-66.67-66.67-66.67v66.67H267.29z"/>
				<path class="st0" d="M200.62,0v66.67h66.67C267.29,29.85,237.44,0,200.62,0z"/>
			</g>
			<g>
				<path class="st1" d="M333.86,133.33c0-36.82-29.85-66.67-66.67-66.67v66.67H333.86z"/>
				<path class="st5" d="M333.86,0c-36.82,0-66.67,29.85-66.67,66.67h66.67V0z"/>
				<path class="st5" d="M333.86,133.33c36.82,0,66.67-29.85,66.67-66.67h-66.67V133.33z"/>
				<path class="st7" d="M400.53,66.67V0h-66.67C333.86,36.82,363.71,66.67,400.53,66.67z"/>
			</g>
			<g>
				<path class="st0" d="M467.1,133.33c0-36.82-29.85-66.67-66.67-66.67v66.67H467.1z"/>
				<path class="st5" d="M467.1,0c-36.82,0-66.67,29.85-66.67,66.67h66.67V0z"/>
				<path class="st7" d="M467.1,66.67c0,36.82,29.85,66.67,66.67,66.67V66.67H467.1z"/>
				<path class="st0" d="M467.1,0v66.67h66.67C533.76,29.85,503.92,0,467.1,0z"/>
			</g>
			<g>
				<path class="st8" d="M600.33,133.33c0-36.82-29.85-66.67-66.67-66.67v66.67H600.33z"/>
				<path class="st6" d="M533.67,0c0,36.82,29.85,66.67,66.67,66.67V0H533.67z"/>
				<path class="st3" d="M600.33,66.67c0,36.82,29.85,66.67,66.67,66.67V66.67H600.33z"/>
				<path class="st6" d="M600.33,0v66.67H667C667,29.85,637.15,0,600.33,0z"/>
			</g>
			<g>
				<path class="st0" d="M733.57,66.67c-36.82,0-66.67,29.85-66.67,66.67h66.67V66.67z"/>
				<path class="st1" d="M733.57,66.67C733.57,29.85,703.72,0,666.91,0v66.67H733.57z"/>
				<path class="st1" d="M733.57,66.67c0,36.82,29.85,66.67,66.67,66.67V66.67H733.57z"/>
				<path class="st6" d="M800.24,66.67V0h-66.67C733.57,36.82,763.42,66.67,800.24,66.67z"/>
			</g>
			<g>
				<path class="st2" d="M800.14,66.67c0,36.82,29.85,66.67,66.67,66.67V66.67H800.14z"/>
				<path class="st4" d="M866.81,66.67C866.81,29.85,836.96,0,800.14,0v66.67H866.81z"/>
				<path class="st1" d="M866.81,133.33c36.82,0,66.67-29.85,66.67-66.67h-66.67V133.33z"/>
				<path class="st7" d="M933.48,0h-66.67v66.67C903.63,66.67,933.48,36.82,933.48,0z"/>
			</g>
			<g>
				<path class="st2" d="M1000.05,66.67c-36.82,0-66.67,29.85-66.67,66.67h66.67V66.67z"/>
				<path class="st9" d="M933.38,66.67c36.82,0,66.67-29.85,66.67-66.67h-66.67V66.67z"/>
				<path class="st7" d="M1000.05,66.67c0,36.82,29.85,66.67,66.67,66.67V66.67H1000.05z"/>
				<path class="st7" d="M1000.05,66.67h66.67V0C1029.89,0,1000.05,29.85,1000.05,66.67z"/>
			</g>
			<g>
				<path class="st7" d="M1133.28,133.33c0-36.82-29.85-66.67-66.67-66.67v66.67H1133.28z"/>
				<path class="st5" d="M1133.28,0c-36.82,0-66.67,29.85-66.67,66.67h66.67V0z"/>
				<path class="st8" d="M1133.28,66.67c0,36.82,29.85,66.67,66.67,66.67V66.67H1133.28z"/>
				<path class="st3" d="M1199.95,66.67V0h-66.67C1133.28,36.82,1163.13,66.67,1199.95,66.67z"/>
			</g>
			<g>
				<path class="st6" d="M1266.52,133.33c0-36.82-29.85-66.67-66.67-66.67v66.67H1266.52z"/>
				<path class="st7" d="M1199.86,0c0,36.82,29.85,66.67,66.67,66.67V0H1199.86z"/>
				<path class="st6" d="M1266.52,66.67c0,36.82,29.85,66.67,66.67,66.67V66.67H1266.52z"/>
				<path class="st3" d="M1333.19,66.67V0h-66.67C1266.52,36.82,1296.37,66.67,1333.19,66.67z"/>
			</g>
			<g>
				<path class="st2" d="M1333.09,133.33c36.82,0,66.67-29.85,66.67-66.67h-66.67V133.33z"/>
				<path class="st8" d="M1333.09,66.67c36.82,0,66.67-29.85,66.67-66.67h-66.67V66.67z"/>
				<path class="st9" d="M1399.76,133.33c36.82,0,66.67-29.85,66.67-66.67h-66.67V133.33z"/>
				<path class="st0" d="M1399.76,66.67h66.67V0C1429.61,0,1399.76,29.85,1399.76,66.67z"/>
			</g>
			<g>
				<path class="st0" d="M1533,66.67c-36.82,0-66.67,29.85-66.67,66.67H1533V66.67z"/>
				<path class="st7" d="M1466.33,66.67c36.82,0,66.67-29.85,66.67-66.67h-66.67V66.67z"/>
				<path class="st9" d="M1599.66,66.67c-36.82,0-66.67,29.85-66.67,66.67h66.67V66.67z"/>
				<path class="st5" d="M1599.66,66.67V0H1533C1533,36.82,1562.84,66.67,1599.66,66.67z"/>
			</g>
			<g>
				<path class="st1" d="M1666.23,66.67c-36.82,0-66.67,29.85-66.67,66.67h66.67V66.67z"/>
				<path class="st9" d="M1666.23,0c-36.82,0-66.67,29.85-66.67,66.67h66.67V0z"/>
				<path class="st2" d="M1732.9,133.33c0-36.82-29.85-66.67-66.67-66.67v66.67H1732.9z"/>
				<path class="st4" d="M1732.9,0h-66.67v66.67C1703.05,66.67,1732.9,36.82,1732.9,0z"/>
			</g>
			<g>
				<path class="st0" d="M1732.81,133.33c36.82,0,66.67-29.85,66.67-66.67h-66.67V133.33z"/>
				<path class="st5" d="M1799.47,0c-36.82,0-66.67,29.85-66.67,66.67h66.67V0z"/>
				<path class="st6" d="M1799.47,133.33c36.82,0,66.67-29.85,66.67-66.67h-66.67V133.33z"/>
				<path class="st0" d="M1866.14,66.67V0h-66.67C1799.47,36.82,1829.32,66.67,1866.14,66.67z"/>
			</g>
			<g>
				<path class="st1" d="M1866.04,66.67c0,36.82,29.85,66.67,66.67,66.67V66.67H1866.04z"/>
				<path class="st4" d="M1866.04,66.67c36.82,0,66.67-29.85,66.67-66.67h-66.67V66.67z"/>
				<path class="st5" d="M1932.71,66.67c0,36.82,29.85,66.67,66.67,66.67V66.67H1932.71z"/>
				<path class="st7" d="M1932.71,0v66.67h66.67C1999.38,29.85,1969.53,0,1932.71,0z"/>
			</g>
		</g>
		<g>
			<g>
				<path class="st8" d="M0.67,200c0,36.82,29.85,66.67,66.67,66.67V200H0.67z"/>
				<path class="st7" d="M0.67,133.33c0,36.82,29.85,66.67,66.67,66.67v-66.67H0.67z"/>
				<path class="st8" d="M67.34,200c0,36.82,29.85,66.67,66.67,66.67V200H67.34z"/>
				<path class="st0" d="M134,133.33H67.34V200C104.16,200,134,170.15,134,133.33z"/>
			</g>
			<g>
				<path class="st7" d="M200.57,266.67c0-36.82-29.85-66.67-66.67-66.67v66.67H200.57z"/>
				<path class="st0" d="M200.57,200c0-36.82-29.85-66.67-66.67-66.67V200H200.57z"/>
				<path class="st0" d="M267.24,200c-36.82,0-66.67,29.85-66.67,66.67h66.67V200z"/>
				<path class="st0" d="M267.24,200v-66.67h-66.67C200.57,170.15,230.42,200,267.24,200z"/>
			</g>
			<g>
				<path class="st1" d="M267.14,266.67c36.82,0,66.67-29.85,66.67-66.67h-66.67V266.67z"/>
				<path class="st0" d="M267.14,200c36.82,0,66.67-29.85,66.67-66.67h-66.67V200z"/>
				<path class="st3" d="M333.81,200c0,36.82,29.85,66.67,66.67,66.67V200H333.81z"/>
				<path class="st5" d="M400.48,133.33h-66.67V200C370.63,200,400.48,170.15,400.48,133.33z"/>
			</g>
			<g>
				<path class="st2" d="M400.38,266.67c36.82,0,66.67-29.85,66.67-66.67h-66.67V266.67z"/>
				<path class="st5" d="M467.05,133.33c-36.82,0-66.67,29.85-66.67,66.67h66.67V133.33z"/>
				<path class="st6" d="M467.05,200c0,36.82,29.85,66.67,66.67,66.67V200H467.05z"/>
				<path class="st5" d="M533.72,133.33h-66.67V200C503.87,200,533.72,170.15,533.72,133.33z"/>
			</g>
			<g>
				<path class="st5" d="M600.29,200c-36.82,0-66.67,29.85-66.67,66.67h66.67V200z"/>
				<path class="st9" d="M533.62,133.33c0,36.82,29.85,66.67,66.67,66.67v-66.67H533.62z"/>
				<path class="st6" d="M600.29,266.67c36.82,0,66.67-29.85,66.67-66.67h-66.67V266.67z"/>
				<path class="st2" d="M666.95,200v-66.67h-66.67C600.29,170.15,630.13,200,666.95,200z"/>
			</g>
			<g>
				<path class="st6" d="M733.52,200c-36.82,0-66.67,29.85-66.67,66.67h66.67V200z"/>
				<path class="st1" d="M666.86,200c36.82,0,66.67-29.85,66.67-66.67h-66.67V200z"/>
				<path class="st8" d="M800.19,266.67c0-36.82-29.85-66.67-66.67-66.67v66.67H800.19z"/>
				<path class="st6" d="M800.19,133.33h-66.67V200C770.34,200,800.19,170.15,800.19,133.33z"/>
			</g>
			<g>
				<path class="st2" d="M800.09,266.67c36.82,0,66.67-29.85,66.67-66.67h-66.67V266.67z"/>
				<path class="st3" d="M866.76,133.33c-36.82,0-66.67,29.85-66.67,66.67h66.67V133.33z"/>
				<path class="st5" d="M933.43,266.67c0-36.82-29.85-66.67-66.67-66.67v66.67H933.43z"/>
				<path class="st9" d="M866.76,200h66.67v-66.67C896.61,133.33,866.76,163.18,866.76,200z"/>
			</g>
			<g>
				<path class="st4" d="M933.33,200c0,36.82,29.85,66.67,66.67,66.67V200H933.33z"/>
				<path class="st2" d="M1000,200c0-36.82-29.85-66.67-66.67-66.67V200H1000z"/>
				<path class="st3" d="M1000,266.67c36.82,0,66.67-29.85,66.67-66.67H1000V266.67z"/>
				<path class="st0" d="M1066.67,133.33H1000V200C1036.82,200,1066.67,170.15,1066.67,133.33z"/>
			</g>
			<g>
				<path class="st0" d="M1133.24,200c-36.82,0-66.67,29.85-66.67,66.67h66.67V200z"/>
				<path class="st6" d="M1066.57,133.33c0,36.82,29.85,66.67,66.67,66.67v-66.67H1066.57z"/>
				<path class="st2" d="M1133.24,200c0,36.82,29.85,66.67,66.67,66.67V200H1133.24z"/>
				<path class="st2" d="M1199.9,200v-66.67h-66.67C1133.24,170.15,1163.08,200,1199.9,200z"/>
			</g>
			<g>
				<path class="st7" d="M1266.47,266.67c0-36.82-29.85-66.67-66.67-66.67v66.67H1266.47z"/>
				<path class="st7" d="M1199.81,133.33c0,36.82,29.85,66.67,66.67,66.67v-66.67H1199.81z"/>
				<path class="st6" d="M1333.14,200c-36.82,0-66.67,29.85-66.67,66.67h66.67V200z"/>
				<path class="st1" d="M1333.14,200v-66.67h-66.67C1266.47,170.15,1296.32,200,1333.14,200z"/>
			</g>
			<g>
				<path class="st9" d="M1399.71,200c-36.82,0-66.67,29.85-66.67,66.67h66.67V200z"/>
				<path class="st2" d="M1333.05,133.33c0,36.82,29.85,66.67,66.67,66.67v-66.67H1333.05z"/>
				<path class="st2" d="M1466.38,266.67c0-36.82-29.85-66.67-66.67-66.67v66.67H1466.38z"/>
				<path class="st7" d="M1399.71,133.33V200h66.67C1466.38,163.18,1436.53,133.33,1399.71,133.33z"/>
			</g>
			<g>
				<path class="st0" d="M1532.95,200c-36.82,0-66.67,29.85-66.67,66.67h66.67V200z"/>
				<path class="st9" d="M1466.28,200c36.82,0,66.67-29.85,66.67-66.67h-66.67V200z"/>
				<path class="st1" d="M1599.62,200c-36.82,0-66.67,29.85-66.67,66.67h66.67V200z"/>
				<path class="st4" d="M1599.62,200v-66.67h-66.67C1532.95,170.15,1562.8,200,1599.62,200z"/>
			</g>
			<g>
				<path class="st3" d="M1666.19,266.67c0-36.82-29.85-66.67-66.67-66.67v66.67H1666.19z"/>
				<path class="st0" d="M1666.19,200c0-36.82-29.85-66.67-66.67-66.67V200H1666.19z"/>
				<path class="st3" d="M1666.19,200c0,36.82,29.85,66.67,66.67,66.67V200H1666.19z"/>
				<path class="st0" d="M1666.19,133.33V200h66.67C1732.85,163.18,1703.01,133.33,1666.19,133.33z"/>
			</g>
			<g>
				<path class="st1" d="M1732.76,200c0,36.82,29.85,66.67,66.67,66.67V200H1732.76z"/>
				<path class="st2" d="M1732.76,200c36.82,0,66.67-29.85,66.67-66.67h-66.67V200z"/>
				<path class="st9" d="M1866.09,266.67c0-36.82-29.85-66.67-66.67-66.67v66.67H1866.09z"/>
				<path class="st9" d="M1799.42,133.33V200h66.67C1866.09,163.18,1836.24,133.33,1799.42,133.33z"/>
			</g>
			<g>
				<path class="st3" d="M1932.66,200c-36.82,0-66.67,29.85-66.67,66.67h66.67V200z"/>
				<path class="st1" d="M1932.66,133.33c-36.82,0-66.67,29.85-66.67,66.67h66.67V133.33z"/>
				<path class="st7" d="M1932.66,266.67c36.82,0,66.67-29.85,66.67-66.67h-66.67V266.67z"/>
				<path class="st3" d="M1999.33,200v-66.67h-66.67C1932.66,170.15,1962.51,200,1999.33,200z"/>
			</g>
		</g>
		<g>
			<g>
				<path class="st3" d="M0.62,400c36.82,0,66.67-29.85,66.67-66.67H0.62V400z"/>
				<path class="st7" d="M67.29,266.67c-36.82,0-66.67,29.85-66.67,66.67h66.67V266.67z"/>
				<path class="st7" d="M133.96,333.33c-36.82,0-66.67,29.85-66.67,66.67h66.67V333.33z"/>
				<path class="st1" d="M67.29,266.67v66.67h66.67C133.96,296.52,104.11,266.67,67.29,266.67z"/>
			</g>
			<g>
				<path class="st6" d="M133.86,400c36.82,0,66.67-29.85,66.67-66.67h-66.67V400z"/>
				<path class="st1" d="M200.53,333.33c0-36.82-29.85-66.67-66.67-66.67v66.67H200.53z"/>
				<path class="st5" d="M200.53,333.33c0,36.82,29.85,66.67,66.67,66.67v-66.67H200.53z"/>
				<path class="st2" d="M267.19,333.33v-66.67h-66.67C200.53,303.48,230.37,333.33,267.19,333.33z"/>
			</g>
			<g>
				<path class="st1" d="M333.76,333.33c-36.82,0-66.67,29.85-66.67,66.67h66.67V333.33z"/>
				<path class="st7" d="M267.1,266.67c0,36.82,29.85,66.67,66.67,66.67v-66.67H267.1z"/>
				<path class="st7" d="M333.76,333.33c0,36.82,29.85,66.67,66.67,66.67v-66.67H333.76z"/>
				<path class="st6" d="M333.76,266.67v66.67h66.67C400.43,296.52,370.58,266.67,333.76,266.67z"/>
			</g>
			<g>
				<path class="st2" d="M467,333.33c-36.82,0-66.67,29.85-66.67,66.67H467V333.33z"/>
				<path class="st0" d="M467,333.33c0-36.82-29.85-66.67-66.67-66.67v66.67H467z"/>
				<path class="st1" d="M533.67,400c0-36.82-29.85-66.67-66.67-66.67V400H533.67z"/>
				<path class="st9" d="M533.67,266.67H467v66.67C503.82,333.33,533.67,303.48,533.67,266.67z"/>
			</g>
			<g>
				<path class="st2" d="M533.57,400c36.82,0,66.67-29.85,66.67-66.67h-66.67V400z"/>
				<path class="st3" d="M600.24,333.33c0-36.82-29.85-66.67-66.67-66.67v66.67H600.24z"/>
				<path class="st0" d="M666.91,333.33c-36.82,0-66.67,29.85-66.67,66.67h66.67V333.33z"/>
				<path class="st9" d="M666.91,266.67h-66.67v66.67C637.06,333.33,666.91,303.48,666.91,266.67z"/>
			</g>
			<g>
				<path class="st2" d="M666.81,333.33c0,36.82,29.85,66.67,66.67,66.67v-66.67H666.81z"/>
				<path class="st6" d="M733.48,333.33c0-36.82-29.85-66.67-66.67-66.67v66.67H733.48z"/>
				<path class="st4" d="M800.14,400c0-36.82-29.85-66.67-66.67-66.67V400H800.14z"/>
				<path class="st1" d="M733.48,333.33h66.67v-66.67C763.32,266.67,733.48,296.52,733.48,333.33z"/>
			</g>
			<g>
				<path class="st1" d="M800.05,333.33c0,36.82,29.85,66.67,66.67,66.67v-66.67H800.05z"/>
				<path class="st0" d="M800.05,333.33c36.82,0,66.67-29.85,66.67-66.67h-66.67V333.33z"/>
				<path class="st0" d="M933.38,400c0-36.82-29.85-66.67-66.67-66.67V400H933.38z"/>
				<path class="st2" d="M866.71,266.67v66.67h66.67C933.38,296.52,903.53,266.67,866.71,266.67z"/>
			</g>
			<g>
				<path class="st6" d="M999.95,400c0-36.82-29.85-66.67-66.67-66.67V400H999.95z"/>
				<path class="st0" d="M999.95,333.33c0-36.82-29.85-66.67-66.67-66.67v66.67H999.95z"/>
				<path class="st2" d="M1066.62,400c0-36.82-29.85-66.67-66.67-66.67V400H1066.62z"/>
				<path class="st5" d="M999.95,333.33h66.67v-66.67C1029.8,266.67,999.95,296.52,999.95,333.33z"/>
			</g>
			<g>
				<path class="st3" d="M1133.19,400c0-36.82-29.85-66.67-66.67-66.67V400H1133.19z"/>
				<path class="st0" d="M1066.52,333.33c36.82,0,66.67-29.85,66.67-66.67h-66.67V333.33z"/>
				<path class="st5" d="M1133.19,333.33c0,36.82,29.85,66.67,66.67,66.67v-66.67H1133.19z"/>
				<path class="st9" d="M1199.86,266.67h-66.67v66.67C1170.01,333.33,1199.86,303.48,1199.86,266.67z"/>
			</g>
			<g>
				<path class="st0" d="M1266.43,333.33c-36.82,0-66.67,29.85-66.67,66.67h66.67V333.33z"/>
				<path class="st9" d="M1199.76,333.33c36.82,0,66.67-29.85,66.67-66.67h-66.67V333.33z"/>
				<path class="st2" d="M1333.09,333.33c-36.82,0-66.67,29.85-66.67,66.67h66.67V333.33z"/>
				<path class="st2" d="M1266.43,333.33h66.67v-66.67C1296.27,266.67,1266.43,296.52,1266.43,333.33z"/>
			</g>
			<g>
				<path class="st3" d="M1399.66,333.33c-36.82,0-66.67,29.85-66.67,66.67h66.67V333.33z"/>
				<path class="st1" d="M1333,333.33c36.82,0,66.67-29.85,66.67-66.67H1333V333.33z"/>
				<path class="st9" d="M1399.66,333.33c0,36.82,29.85,66.67,66.67,66.67v-66.67H1399.66z"/>
				<path class="st9" d="M1466.33,333.33v-66.67h-66.67C1399.66,303.48,1429.51,333.33,1466.33,333.33z"/>
			</g>
			<g>
				<path class="st7" d="M1532.9,400c0-36.82-29.85-66.67-66.67-66.67V400H1532.9z"/>
				<path class="st3" d="M1532.9,333.33c0-36.82-29.85-66.67-66.67-66.67v66.67H1532.9z"/>
				<path class="st3" d="M1532.9,333.33c0,36.82,29.85,66.67,66.67,66.67v-66.67H1532.9z"/>
				<path class="st5" d="M1532.9,266.67v66.67h66.67C1599.57,296.52,1569.72,266.67,1532.9,266.67z"/>
			</g>
			<g>
				<path class="st1" d="M1666.14,400c0-36.82-29.85-66.67-66.67-66.67V400H1666.14z"/>
				<path class="st1" d="M1666.14,333.33c0-36.82-29.85-66.67-66.67-66.67v66.67H1666.14z"/>
				<path class="st5" d="M1666.14,333.33c0,36.82,29.85,66.67,66.67,66.67v-66.67H1666.14z"/>
				<path class="st5" d="M1732.81,333.33v-66.67h-66.67C1666.14,303.48,1695.99,333.33,1732.81,333.33z"/>
			</g>
			<g>
				<path class="st5" d="M1799.38,400c0-36.82-29.85-66.67-66.67-66.67V400H1799.38z"/>
				<path class="st9" d="M1799.38,266.67c-36.82,0-66.67,29.85-66.67,66.67h66.67V266.67z"/>
				<path class="st6" d="M1866.04,400c0-36.82-29.85-66.67-66.67-66.67V400H1866.04z"/>
				<path class="st0" d="M1866.04,266.67h-66.67v66.67C1836.2,333.33,1866.04,303.48,1866.04,266.67z"/>
			</g>
			<g>
				<path class="st4" d="M1865.95,333.33c0,36.82,29.85,66.67,66.67,66.67v-66.67H1865.95z"/>
				<path class="st0" d="M1865.95,333.33c36.82,0,66.67-29.85,66.67-66.67h-66.67V333.33z"/>
				<path class="st4" d="M1932.61,400c36.82,0,66.67-29.85,66.67-66.67h-66.67V400z"/>
				<path class="st6" d="M1999.28,266.67h-66.67v66.67C1969.43,333.33,1999.28,303.48,1999.28,266.67z"/>
			</g>
		</g>
		<g>
			<g>
				<path class="st1" d="M67.24,400"/>
				<path class="st8" d="M133.91,400"/>
			</g>
			<g>
				<path class="st1" d="M200.48,400"/>
				<path class="st8" d="M267.14,400"/>
			</g>
			<g>
				<path class="st4" d="M333.72,400h-66.67"/>
				<path class="st7" d="M333.72,400"/>
			</g>
			<g>
				<path class="st4" d="M400.29,400"/>
				<path class="st3" d="M533.62,400"/>
			</g>
			<g>
				<path class="st9" d="M600.19,400"/>
				<path class="st5" d="M666.86,400h-66.67"/>
			</g>
			<g>
				<path class="st7" d="M666.76,400"/>
				<path class="st1" d="M800.09,400h-66.67"/>
			</g>
			<g>
				<path class="st0" d="M866.67,400"/>
				<path class="st9" d="M933.33,400"/>
			</g>
			<g>
				<path class="st0" d="M999.9,400h-66.67"/>
				<path class="st0" d="M1066.57,400H999.9"/>
			</g>
			<g>
				<path class="st5" d="M1133.14,400h-66.67"/>
				<path class="st0" d="M1199.81,400h-66.67"/>
			</g>
			<g>
				<path class="st3" d="M1199.71,400"/>
				<path class="st7" d="M1266.38,400"/>
			</g>
			<g>
				<path class="st0" d="M1332.95,400"/>
				<path class="st7" d="M1466.28,400h-66.67"/>
			</g>
			<g>
				<path class="st9" d="M1532.85,400h-66.67"/>
				<path class="st9" d="M1599.52,400"/>
			</g>
			<g>
				<path class="st9" d="M1666.09,400"/>
				<path class="st5" d="M1732.76,400h-66.67"/>
			</g>
			<g>
				<path class="st0" d="M1799.33,400h-66.67"/>
				<path class="st5" d="M1866,400"/>
			</g>
			<g>
				<path class="st5" d="M1932.57,400h-66.67"/>
				<path class="st0" d="M1999.23,400"/>
			</g>
		</g>
	</g>
</g>
</svg>
