<svg width="137.145" height="137.145" xmlns="http://www.w3.org/2000/svg">

 <g>
  <title>background</title>
  <rect fill="none" id="canvas_background" height="402" width="582" y="-1" x="-1"/>
 </g>
 <g>
  <title>Layer 1</title>
  <g id="svg_1">
   <g id="svg_2">
    <path fill="#56beff" id="svg_3" d="m51.858,78.644c0,0 -13.069,-3.23 -17.572,17.357c-2.555,11.684 -6.857,13.714 -6.857,13.714s18.071,1.499 27.429,-6.857c8.631,-7.708 6.857,-17.357 6.857,-17.357l-9.857,-6.857zm3,-6.429l13.5,9.643l34.929,-50.358l-7.286,-4.072l-41.143,44.787zm54.857,-72.215l-82.286,0c-15.148,0 -27.429,12.281 -27.429,27.428l0,82.287c0,15.148 12.28,27.429 27.429,27.429l82.286,0c15.149,0 27.429,-12.281 27.429,-27.429l0,-82.287c0,-15.147 -12.28,-27.428 -27.429,-27.428zm13.715,102.858c0,11.361 -9.21,20.572 -20.571,20.572l-68.573,0c-11.361,0 -20.572,-9.211 -20.572,-20.572l0,-68.572c0,-11.361 9.21,-20.572 20.572,-20.572l68.572,0c11.361,0 20.571,9.211 20.571,20.572l0,68.572l0.001,0z"/>
   </g>
  </g>
 </g>
</svg>