<?xml version="1.0" encoding="utf-8"?>
<!-- Generator: Adobe Illustrator 27.3.1, SVG Export Plug-In . SVG Version: 6.00 Build 0)  -->
<svg version="1.1" id="Слой_1" xmlns="http://www.w3.org/2000/svg" xmlns:xlink="http://www.w3.org/1999/xlink" x="0px" y="0px"
	 viewBox="0 0 1920 1080" style="enable-background:new 0 0 1920 1080;" xml:space="preserve">
<style type="text/css">
	.st0{fill:#F13C13;}
	.st1{fill:url(#SVGID_1_);}
	.st2{fill:url(#SVGID_00000106136370721271450310000013152069811506187410_);}
	.st3{fill:url(#SVGID_00000183948684910192153560000003599841917585006230_);}
	.st4{fill:url(#SVGID_00000076592742980189673480000015141050318627523481_);}
</style>
<path id="path3964" class="st0" d="M445.56,708.94c-105.89-6.63-195.28-15.78-198.65-20.33c-3.36-4.55-23.99-8.33-45.84-8.4
	c-21.85-0.07-50.67-3.34-64.04-7.26c-31.32-9.18-50.38-73.98-25.86-87.92c18.39-10.46,15.85-51.97-6.45-105.23
	c-16.83-40.2,40.28-63.3,143.41-58.03c43.03,2.2,212.7,5.63,377.04,7.62c194.28,2.35,308.06,7.17,325.26,13.77
	c27.62,10.6,353.93,6.86,393.72-4.51c10.91-3.12,32.03-0.99,46.93,4.73c27.09,10.4,202.21,6.84,271.87-5.52
	c22.66-4.02,34.57-0.48,41.88,12.44c10.3,18.21,67.95,24.92,87.63,10.19c11.26-8.42,168.89-6.27,188.01,2.57
	c6.3,2.91-20.86,5.35-60.36,5.42c-88.87,0.14-154.33,7.83-154.33,18.13c0,4.38,15.54,3.94,35.56-1.01
	c23.65-5.85,39.37-5.95,46.92-0.3c6.25,4.68,29.44,8.88,51.54,9.35c37.4,0.79,37.01,1.31-5.67,7.63
	c-25.21,3.73-72.66,7.17-105.44,7.63c-32.78,0.46-59.59,4.19-59.59,8.28c0,4.09,38.37,5.44,85.26,2.99
	c103.12-5.37,97.1,10.18-6.88,17.77c-113.61,8.3-131.65,10.53-146.61,18.13c-7.86,3.99-2.9,4.21,11.02,0.48
	c17.3-4.64,22.62-3.06,16.81,5c-4.67,6.48-16.06,12.12-25.3,12.53c-9.24,0.41-37.44,4.94-62.65,10.06
	c-45.66,9.27-45.61,9.31,12.67,9.85c32.18,0.3,63.61-3.28,69.84-7.94c6.23-4.66,19.58-8.48,29.67-8.48c10.09,0,13.95,3.28,8.6,7.29
	c-5.36,4.01,10.66,6.25,35.59,4.99s45.33,1.18,45.33,5.43c0,8.21-21.64,9.49-186.16,11.01c-57.01,0.53-99.84,3.82-95.18,7.32
	c4.65,3.5,1.79,6.85-6.37,7.45c-65.26,4.81-116.14,7.97-173.38,10.77c-76.41,3.74-401.05,38.11-425.25,45.02
	c-26.32,7.52,25.89,17.89,124.51,24.72l92.56,6.41l-82.51,6.24c-128.37,9.7-393.59,6.94-605.11-6.31L445.56,708.94z M1457.5,606.72
	c-13.24-2.45-29.05-2.15-35.15,0.67c-6.09,2.82,4.74,4.82,24.07,4.45C1467.78,611.43,1472.12,609.42,1457.5,606.72L1457.5,606.72z
	 M1463.23,561.63c6.43-4.81-8.98-8.48-35.59-8.48c-25.81,0-46.92,3.82-46.92,8.48c0,4.66,16.02,8.48,35.59,8.48
	S1456.99,566.3,1463.23,561.63z M1536.44,553.25c6.42-4.81-0.94-6.23-17.25-3.33c-31.77,5.64-37.58,11.71-11.2,11.71
	C1517.47,561.63,1530.28,557.86,1536.44,553.25L1536.44,553.25z M1600.75,519.24c0-4.66-7.76-8.48-17.25-8.48
	s-22.35,3.82-28.59,8.48c-6.23,4.66,1.53,8.48,17.25,8.48C1587.89,527.72,1600.75,523.9,1600.75,519.24z M1549.18,471.05
	c-13.24-2.45-29.05-2.15-35.15,0.67c-6.09,2.82,4.74,4.82,24.07,4.45C1559.46,475.76,1563.81,473.75,1549.18,471.05L1549.18,471.05z
	 M1642.01,471.23c-12.61-2.35-33.23-2.35-45.84,0s-2.29,4.28,22.92,4.28S1654.62,473.58,1642.01,471.23z M1719.7,663.2
	c-14.36-10.75,100.32-33.69,169.26-33.87c28.06-0.07,63.39-3.83,78.52-8.35c23.81-7.11,23.41-8.24-2.96-8.35
	c-42.65-0.18-29.98-29.28,13.86-31.85c31.51-1.85,31.76-1.42,2.63,4.39c-30.39,6.05-30.21,7.27,3.07,20.45
	c19.46,7.71,54.63,15.71,78.15,17.78c35.91,3.16,33.94,4-12.24,5.22c-60.22,1.59-165.5,25.08-119.19,26.59
	c18.77,0.61,15.86,3.21-9.17,8.18C1869.86,673.67,1733.53,673.55,1719.7,663.2L1719.7,663.2z M1839.41,601.91
	c-0.19-9.97,13.26-14.62,40.98-14.17c27.57,0.45,32.13,2.28,13.75,5.51c-15.13,2.66-33.57,9.04-40.98,14.17
	C1844.85,613.17,1839.58,611.06,1839.41,601.91L1839.41,601.91z M1985.82,519.23c15.13-4.52,41.95-8.28,59.59-8.35
	c17.65-0.07,32.21-4.9,32.37-10.73c0.19-7.04,6.15-6.33,17.79,2.12c18.3,13.3-21.24,22.92-100.58,24.46
	C1964.78,527.33,1963.16,526.01,1985.82,519.23L1985.82,519.23z"/>
<g>
	<g>
		<linearGradient id="SVGID_1_" gradientUnits="userSpaceOnUse" x1="1511.7449" y1="596.9164" x2="1563.9352" y2="596.9164">
			<stop  offset="0" style="stop-color:#F22A2A"/>
			<stop  offset="0.3353" style="stop-color:#F63E35;stop-opacity:0.8323"/>
			<stop  offset="1" style="stop-color:#FF7150;stop-opacity:0.5"/>
		</linearGradient>
		<path class="st1" d="M1511.75,599.44L1511.75,599.44c0.14,8.42,4.32,10.37,10.91,5.07c5.88-4.72,20.51-10.59,32.52-13.04
			c14.58-2.98,10.96-4.66-10.91-5.07C1522.27,585.99,1511.59,590.27,1511.75,599.44z"/>
		
			<linearGradient id="SVGID_00000124143035008380555830000011412465724593711015_" gradientUnits="userSpaceOnUse" x1="1615.6707" y1="515.8909" x2="1718.5272" y2="515.8909">
			<stop  offset="0" style="stop-color:#F22A2A"/>
			<stop  offset="0.3353" style="stop-color:#F63E35;stop-opacity:0.8323"/>
			<stop  offset="1" style="stop-color:#FF7150;stop-opacity:0.5"/>
		</linearGradient>
		<path style="fill:url(#SVGID_00000124143035008380555830000011412465724593711015_);" d="M1715.02,507.76
			c-9.23-7.78-13.96-8.43-14.11-1.95c-0.12,5.36-11.68,9.81-25.69,9.87c-14.01,0.07-35.29,3.52-47.29,7.68l0,0
			c-17.98,6.23-16.7,7.45,7.28,6.91C1698.17,528.85,1729.55,520,1715.02,507.76z"/>
		
			<linearGradient id="SVGID_00000164476231691558105640000004694533351679942828_" gradientUnits="userSpaceOnUse" x1="1415.7781" y1="621.0795" x2="1708.3265" y2="621.0795">
			<stop  offset="0" style="stop-color:#F22A2A"/>
			<stop  offset="0.3353" style="stop-color:#F63E35;stop-opacity:0.8323"/>
			<stop  offset="1" style="stop-color:#FF7150;stop-opacity:0.5"/>
		</linearGradient>
		<path style="fill:url(#SVGID_00000164476231691558105640000004694533351679942828_);" d="M1688.57,619.21
			c-18.67-1.91-46.57-9.27-62.02-16.36c-26.41-12.13-26.55-13.25-2.44-18.81c23.12-5.34,22.91-5.74-2.09-4.04
			c-34.79,2.36-44.84,29.15-11,29.31c20.93,0.1,21.24,1.14,2.35,7.68c-12,4.16-40.04,7.62-62.31,7.68
			c-54.71,0.16-145.71,21.28-134.32,31.17l0,0c10.97,9.52,119.15,9.63,160.25,0.16c19.86-4.58,22.17-6.97,7.28-7.53
			c-36.75-1.39,46.79-23,94.58-24.47C1715.51,622.89,1717.07,622.12,1688.57,619.21z"/>
		
			<linearGradient id="SVGID_00000124156733895186274340000005668348580834422969_" gradientUnits="userSpaceOnUse" x1="131.4475" y1="571.0309" x2="1624.3978" y2="571.0309">
			<stop  offset="0" style="stop-color:#F22A2A"/>
			<stop  offset="0.3353" style="stop-color:#F63E35;stop-opacity:0.8323"/>
			<stop  offset="1" style="stop-color:#FF7150;stop-opacity:0.5"/>
		</linearGradient>
		<path style="fill:url(#SVGID_00000124156733895186274340000005668348580834422969_);" d="M1334.69,604.42
			c130.55-1.4,147.73-2.58,147.73-10.13c0-3.91-16.19-6.16-35.97-5c-19.78,1.16-32.49-0.9-28.24-4.59c4.25-3.69,1.18-6.71-6.82-6.71
			c-8,0-18.6,3.51-23.54,7.8c-4.95,4.29-29.89,7.58-55.42,7.31c-46.25-0.49-46.29-0.53-10.05-9.06c20.01-4.71,42.38-8.88,49.72-9.26
			c7.34-0.38,16.37-5.57,20.08-11.53c4.61-7.41,0.39-8.87-13.34-4.6c-11.04,3.43-14.98,3.23-8.74-0.44
			c11.87-6.99,26.19-9.05,116.34-16.68c82.51-6.99,87.29-21.3,5.46-16.36c-37.21,2.25-67.66,1.01-67.66-2.75
			c0-3.76,21.28-7.19,47.29-7.62c26.01-0.43,63.66-3.59,83.67-7.02c33.86-5.82,34.17-6.3,4.5-7.02c-17.53-0.43-35.94-4.3-40.9-8.6
			c-6-5.2-18.47-5.11-37.24,0.27c-15.88,4.56-28.22,4.97-28.22,0.93c0-9.47,51.95-16.55,122.47-16.68c31.34-0.06,52.9-2.3,47.9-4.98
			c-15.17-8.13-140.25-10.11-149.19-2.36c-15.62,13.55-61.37,7.38-69.54-9.38c-5.8-11.89-15.25-15.15-33.23-11.45
			c-55.28,11.38-194.24,14.65-215.74,5.08c-11.82-5.26-28.58-7.22-37.24-4.35c-31.58,10.47-290.52,13.9-312.44,4.15
			c-13.65-6.07-103.94-10.51-258.1-12.67c-130.41-1.83-265.05-4.99-299.19-7.01c-81.84-4.86-127.16,16.41-113.8,53.4
			c17.69,49.01,19.71,87.21,5.12,96.83c-19.46,12.83-4.33,72.46,20.52,80.91c10.61,3.61,33.48,6.61,50.82,6.68
			c17.34,0.07,33.71,3.54,36.38,7.73c2.67,4.19,73.6,12.6,157.63,18.7l-0.02,0c167.85,12.19,378.32,14.73,480.18,5.8l65.48-5.74
			l-73.45-5.9c-78.26-6.29-119.69-15.83-98.8-22.75c19.21-6.36,276.82-37.99,337.45-41.43c45.43-2.58,85.8-5.49,137.59-9.91
			c6.47-0.55,8.75-3.64,5.06-6.86C1255.46,607.93,1289.45,604.9,1334.69,604.42z M1147.75,562.38c0-4.29,16.76-7.8,37.24-7.8
			c21.12,0,33.34,3.38,28.24,7.8c-4.95,4.29-21.7,7.8-37.24,7.8C1160.46,570.19,1147.75,566.67,1147.75,562.38z M1199.89,608.58
			c-15.34,0.34-23.93-1.51-19.1-4.1c4.84-2.59,17.39-2.87,27.89-0.62l0,0C1220.29,606.36,1216.84,608.21,1199.89,608.58z
			 M1318.73,479.19c10-2.16,26.37-2.16,36.38,0c10,2.16,1.82,3.94-18.19,3.94S1308.72,481.35,1318.73,479.19z M1322.36,523.37
			c0,4.29-10.21,7.8-22.68,7.8c-12.48,0-18.64-3.51-13.69-7.8c4.95-4.29,15.15-7.8,22.68-7.8
			C1316.2,515.57,1322.36,519.08,1322.36,523.37z M1253.55,479.64c4.84-2.59,17.39-2.87,27.89-0.62h0
			c11.61,2.49,8.16,4.34-8.79,4.71C1257.31,484.08,1248.71,482.23,1253.55,479.64z M1248.75,562.38c-20.93,0-16.32-5.59,8.89-10.78
			c12.95-2.66,18.79-1.36,13.69,3.07h0C1266.44,558.91,1256.28,562.38,1248.75,562.38z"/>
	</g>
</g>
</svg>
