<?xml version="1.0" encoding="utf-8"?>
<!-- Generator: Adobe Illustrator 27.3.1, SVG Export Plug-In . SVG Version: 6.00 Build 0)  -->
<svg version="1.1" id="Слой_1" xmlns="http://www.w3.org/2000/svg" xmlns:xlink="http://www.w3.org/1999/xlink" x="0px" y="0px"
	 viewBox="0 0 64 64" style="enable-background:new 0 0 64 64;" xml:space="preserve">
<style type="text/css">
	.st0{fill:#37AEE2;}
	.st1{fill:#C8DAEA;}
	.st2{fill:#A9C9DD;}
	.st3{fill:#F6FBFE;}
</style>
<path class="st0" d="M9.6,0h44.8C59.7,0,64,4.3,64,9.6v44.8c0,5.3-4.3,9.6-9.6,9.6H9.6C4.3,64,0,59.7,0,54.4V9.6C0,4.3,4.3,0,9.6,0z
	"/>
<path class="st1" d="M24.9,50.5c-1.4,0-1.2-0.5-1.6-1.8l-4-13.1l30.6-18"/>
<path class="st2" d="M24.9,50.5c0.9,0,1.4-0.5,2-1l5.6-5.4l-7-4.2"/>
<path class="st3" d="M25.5,39.9l16.9,12.4c1.8,1.1,3.2,0.5,3.8-1.8L53,18.2c0.6-2.8-1.1-4-3-3.1L9.9,30.6c-2.6,1-2.6,2.6-0.5,3.2
	l10.4,3.2L43.5,22c1.1-0.6,2.1-0.4,1.4,0.5"/>
</svg>
